<svg width="180" height="32" xmlns="http://www.w3.org/2000/svg" version="1.1">
 <title>BendaTube</title>

 <g>
  <title>Layer 1</title>
  <path id="svg_1" d="m6.31779,6.06824l6.2207,0q4.25195,0 6.17285,1.20996t1.9209,3.84864q0,1.79101 -0.84082,2.93945t-2.23535,1.38086l0,0.13672q1.90039,0.42382 2.74121,1.58593t0.84082,3.08985q0,2.73437 -1.97559,4.26562t-5.36621,1.53125l-7.47851,0l0,-19.98828zm4.23828,7.91602l2.46093,0q1.72266,0 2.49512,-0.53321t0.77246,-1.76367q0,-1.14844 -0.84082,-1.64746t-2.65918,-0.49902l-2.22851,0l0,4.44336zm0,3.36328l0,5.20898l2.76172,0q1.75,0 2.58398,-0.66992t0.83398,-2.05078q0,-2.48828 -3.55468,-2.48828l-2.625,0zm22.50076,-3.89649q-1.32617,0 -2.07813,0.84082t-0.86133,2.38575l5.85157,0q-0.02735,-1.54493 -0.80664,-2.38575t-2.10547,-0.84082zm0.58789,12.87891q-3.69141,0 -5.76953,-2.03711t-2.07813,-5.76953q0,-3.8418 1.9209,-5.94043t5.31152,-2.09863q3.24024,0 5.04493,1.8457t1.80468,5.09961l0,2.02344l-9.85742,0q0.06836,1.77734 1.05274,2.77539t2.76171,0.99804q1.38086,0 2.61133,-0.2871t2.57032,-0.91602l0,3.22656q-1.09375,0.54688 -2.3379,0.81348t-3.03515,0.2666zm25.65896,-0.27344l-4.16992,0l0,-8.92773q0,-1.6543 -0.58789,-2.48145t-1.87305,-0.82715q-1.75,0 -2.52929,1.16895t-0.7793,3.87598l0,7.1914l-4.16992,0l0,-15.28515l3.18555,0l0.56054,1.95507l0.23242,0q0.69727,-1.10742 1.9209,-1.6748t2.78223,-0.56738q2.66601,0 4.04687,1.44238t1.38086,4.16309l0,9.96679zm11.05741,0.27344q-2.69336,0 -4.23145,-2.0918t-1.53809,-5.79687q0,-3.75977 1.56543,-5.8584t4.31348,-2.09863q2.88477,0 4.40234,2.24218l0.13672,0q-0.31445,-1.70898 -0.31445,-3.04882l0,-4.89453l4.18359,0l0,21.27343l-3.19921,0l-0.80665,-1.98242l-0.17773,0q-1.42187,2.25586 -4.33398,2.25586zm1.46289,-3.32227q1.59961,0 2.34472,-0.92968t0.81348,-3.15821l0,-0.45117q0,-2.46094 -0.75879,-3.52734t-2.46777,-1.06641q-1.39453,0 -2.167,1.18262t-0.77246,3.43848t0.7793,3.38378t2.22852,1.12793zm23.04763,3.04883l-0.80664,-2.07812l-0.10937,0q-1.05274,1.32617 -2.16699,1.83886t-2.90528,0.5127q-2.20117,0 -3.46582,-1.25781t-1.26465,-3.58203q0,-2.4336 1.70215,-3.58887t5.13379,-1.27832l2.65234,-0.08203l0,-0.66992q0,-2.32422 -2.3789,-2.32422q-1.83203,0 -4.30664,1.10742l-1.38086,-2.81641q2.63867,-1.38086 5.85156,-1.38086q3.07617,0 4.7168,1.33985t1.64062,4.07422l0,10.18554l-2.91211,0zm-1.23047,-7.08203l-1.61328,0.05469q-1.81836,0.05469 -2.70703,0.65625t-0.88867,1.83203q0,1.76367 2.02344,1.76367q1.44922,0 2.31738,-0.83398t0.86816,-2.21485l0,-1.25781z" fill="#ffffff"/>
  <path id="svg_2" d="m110.95754,26.05652l-4.23828,0l0,-16.46093l-5.42773,0l0,-3.52735l15.09375,0l0,3.52735l-5.42774,0l0,16.46093zm20.9285,0l-0.56055,-1.95508l-0.21875,0q-0.66992,1.06641 -1.90039,1.64747t-2.80273,0.58105q-2.69336,0 -4.06055,-1.44238t-1.36719,-4.14942l0,-9.96679l4.16993,0l0,8.92773q0,1.6543 0.58789,2.48145t1.87304,0.82714q1.75,0 2.5293,-1.16894t0.7793,-3.87598l0,-7.1914l4.16992,0l0,15.28515l-3.19922,0zm18.00271,-15.57226q2.70704,0 4.23829,2.1123t1.53125,5.79004q0,3.78711 -1.57911,5.86524t-4.2998,2.07812q-2.69336,0 -4.22461,-1.95508l-0.28711,0l-0.69726,1.68164l-3.18555,0l0,-21.27343l4.16992,0l0,4.94921q0,0.94336 -0.16406,3.02149l0.16406,0q1.46289,-2.26953 4.33398,-2.26953zm-1.33984,3.33593q-1.54492,0 -2.25586,0.9502t-0.73828,3.1377l0,0.45117q0,2.46093 0.73145,3.52734t2.31738,1.06641q1.28515,0 2.04394,-1.18262t0.75879,-3.43848t-0.76562,-3.38379t-2.0918,-1.12793zm18.80936,-0.36914q-1.32618,0 -2.07813,0.84082t-0.86133,2.38575l5.85157,0q-0.02735,-1.54493 -0.80665,-2.38575t-2.10546,-0.84082zm0.58789,12.87891q-3.69141,0 -5.76953,-2.03711t-2.07813,-5.76953q0,-3.8418 1.9209,-5.94043t5.31152,-2.09863q3.24024,0 5.04492,1.8457t1.80469,5.09961l0,2.02344l-9.85742,0q0.06836,1.77734 1.05273,2.77539t2.76172,0.99804q1.38086,0 2.61133,-0.2871t2.57031,-0.91602l0,3.22656q-1.09375,0.54688 -2.33789,0.81348t-3.03515,0.2666z" fill="#ff0000"/>
  <path id="svg_6" d="m314.90909,31.63636" opacity="NaN" fill="#ff0000"/>
 </g>
</svg>